<?xml version="1.0" encoding="iso-8859-1"?>
<!-- Generator: Adobe Illustrator 19.0.0, SVG Export Plug-In . SVG Version: 6.00 Build 0)  -->
<svg version="1.1" id="Capa_1" xmlns="http://www.w3.org/2000/svg" xmlns:xlink="http://www.w3.org/1999/xlink" x="0px" y="0px"
	 viewBox="0 0 487.622 487.622" style="enable-background:new 0 0 487.622 487.622;" xml:space="preserve">
<g>
	<g>
		<circle style="fill:#CF6F55;" cx="243.811" cy="243.811" r="243.811"/>
		<path style="fill:#C06046;" d="M181.343,230.666l-49.989-51.004l-62.072,63.504l232.089,237.602
			c37.111-8.983,70.903-26.453,99.211-50.246L216.996,230.389L181.343,230.666z"/>
		<path style="fill:#C06046;" d="M244.456,69.282l-62.52,63.053l51.8,49.602l-0.277,35.653l189.96,191.083
			c27.427-29.863,47.494-66.586,57.35-107.301L244.456,69.282z"/>
		<g>
			<polygon style="fill:#F5F5F5;" points="244.456,69.282 181.936,132.334 198.506,148.649 233.168,113.155 233.979,217.176 
				257.233,216.995 256.423,112.963 291.644,147.924 307.959,131.354 			"/>
			<polygon style="fill:#F5F5F5;" points="418.34,244.456 355.287,181.936 338.973,198.506 374.466,233.168 270.446,233.979 
				270.626,257.233 374.659,256.422 339.698,291.643 356.268,307.959 			"/>
			<polygon style="fill:#F5F5F5;" points="243.166,418.34 305.686,355.288 289.116,338.973 254.454,374.467 253.643,270.446 
				230.389,270.625 231.199,374.659 195.978,339.698 179.663,356.268 			"/>
			<polygon style="fill:#F5F5F5;" points="69.282,243.166 132.335,305.686 148.649,289.116 113.156,254.454 217.176,253.643 
				216.996,230.389 112.963,231.2 147.925,195.979 131.354,179.663 			"/>
		</g>
	</g>
</g>
<g>
</g>
<g>
</g>
<g>
</g>
<g>
</g>
<g>
</g>
<g>
</g>
<g>
</g>
<g>
</g>
<g>
</g>
<g>
</g>
<g>
</g>
<g>
</g>
<g>
</g>
<g>
</g>
<g>
</g>
</svg>
