<?xml version="1.0" encoding="iso-8859-1"?>
<!-- Generator: Adobe Illustrator 16.0.0, SVG Export Plug-In . SVG Version: 6.00 Build 0)  -->
<!DOCTYPE svg PUBLIC "-//W3C//DTD SVG 1.1//EN" "http://www.w3.org/Graphics/SVG/1.1/DTD/svg11.dtd">
<svg version="1.1" id="Capa_1" xmlns="http://www.w3.org/2000/svg" xmlns:xlink="http://www.w3.org/1999/xlink" x="0px" y="0px"
	 width="37.66px" height="37.66px" viewBox="0 0 37.66 37.66" style="enable-background:new 0 0 37.66 37.66;" xml:space="preserve"
	>
<g>
	<path d="M35.423,26.089c-0.196-0.735-0.668-1.352-1.326-1.729c-0.433-0.25-0.925-0.383-1.422-0.383
		c-0.76,0-1.479,0.307-2.007,0.826l-3.739-2.16l5.145-1.375c0.399-0.107,0.638-0.521,0.53-0.92c-0.106-0.4-0.52-0.642-0.918-0.529
		l-6.593,1.766l-4.764-2.75l4.765-2.751l6.589,1.768c0.064,0.018,0.13,0.025,0.194,0.025c0.331,0,0.635-0.221,0.725-0.557
		c0.106-0.399-0.13-0.812-0.529-0.918l-5.142-1.379l3.821-2.207c0.504,0.414,1.135,0.67,1.804,0.67c0.512,0,1.017-0.141,1.459-0.404
		c1.349-0.807,1.788-2.561,0.981-3.906c-0.513-0.854-1.45-1.389-2.446-1.389c-0.514,0-1.019,0.141-1.458,0.404
		c-0.654,0.391-1.117,1.012-1.304,1.752c-0.141,0.555-0.109,1.125,0.079,1.651l-3.688,2.129l1.378-5.142
		c0.106-0.4-0.13-0.812-0.53-0.92c-0.399-0.106-0.812,0.131-0.919,0.531l-1.766,6.592l-4.762,2.748v-5.5l4.823-4.823
		c0.293-0.293,0.293-0.769,0-1.062c-0.294-0.293-0.769-0.293-1.062,0L19.579,9.91V5.646c1.307-0.24,2.315-1.381,2.338-2.754
		c0.021-1.57-1.235-2.867-2.848-2.892c-1.547,0-2.825,1.259-2.85,2.807c-0.012,0.761,0.274,1.479,0.805,2.027
		c0.301,0.31,0.663,0.53,1.055,0.677v4.398l-3.766-3.766c-0.293-0.293-0.769-0.293-1.062,0s-0.293,0.768,0,1.061l4.826,4.826v5.502
		l-4.764-2.75L11.55,8.191c-0.106-0.399-0.52-0.637-0.918-0.529c-0.399,0.106-0.638,0.519-0.53,0.918l1.377,5.143L7.732,11.56
		c0.314-1.21-0.188-2.532-1.321-3.188c-0.432-0.25-0.924-0.381-1.421-0.381c-1.016,0-1.962,0.545-2.47,1.424
		c-0.38,0.658-0.481,1.428-0.284,2.162c0.197,0.735,0.668,1.351,1.328,1.729c0.433,0.25,0.924,0.382,1.422,0.382
		c0.759,0,1.478-0.306,2.005-0.824l3.738,2.158l-5.144,1.377c-0.399,0.107-0.637,0.52-0.529,0.92
		c0.09,0.334,0.393,0.556,0.724,0.556c0.064,0,0.129-0.009,0.195-0.025l6.591-1.767l4.762,2.748l-4.763,2.75l-6.592-1.769
		c-0.399-0.104-0.812,0.131-0.919,0.531c-0.107,0.398,0.13,0.812,0.529,0.918l5.145,1.379l-3.823,2.207
		c-0.907-0.715-2.241-0.875-3.26-0.266c-1.347,0.807-1.788,2.559-0.983,3.906c0.512,0.855,1.451,1.389,2.449,1.389
		c0.512,0,1.016-0.141,1.457-0.402c1.186-0.709,1.668-2.149,1.221-3.403l3.688-2.13L10.1,29.083c-0.107,0.399,0.13,0.812,0.529,0.92
		c0.065,0.019,0.131,0.022,0.195,0.022c0.331,0,0.634-0.221,0.724-0.555l1.767-6.592l4.766-2.75v5.496l-4.826,4.828
		c-0.293,0.293-0.293,0.768,0,1.061c0.146,0.146,0.339,0.221,0.53,0.221c0.192,0,0.384-0.073,0.53-0.221l3.766-3.768v4.27
		c-1.308,0.24-2.316,1.381-2.337,2.754c-0.012,0.761,0.273,1.48,0.803,2.027c0.53,0.545,1.241,0.852,2.002,0.863h0.043l0,0
		c1.546,0,2.822-1.258,2.847-2.805c0.012-0.762-0.273-1.48-0.806-2.029c-0.298-0.307-0.657-0.527-1.055-0.674v-4.401l3.763,3.763
		c0.294,0.293,0.769,0.293,1.062,0c0.293-0.293,0.293-0.769,0-1.062l-4.823-4.82V20.13l4.761,2.748l1.767,6.593
		c0.091,0.336,0.394,0.557,0.725,0.557c0.063,0,0.129-0.008,0.194-0.025c0.4-0.107,0.638-0.52,0.53-0.918l-1.378-5.145l3.749,2.164
		c-0.125,0.475-0.138,0.973-0.008,1.457c0.197,0.735,0.668,1.35,1.328,1.729c0.433,0.25,0.924,0.383,1.421,0.383
		c1.017,0,1.962-0.547,2.471-1.426C35.518,27.591,35.621,26.823,35.423,26.089z M31.244,10.307c0.088-0.351,0.308-0.646,0.618-0.83
		c0.208-0.125,0.445-0.19,0.688-0.19c0.306,0,0.585,0.107,0.816,0.287c0.132,0.102,0.253,0.221,0.343,0.369
		c0.207,0.346,0.228,0.742,0.113,1.1c-0.097,0.302-0.286,0.576-0.578,0.751c-0.292,0.174-0.64,0.207-0.962,0.139
		c-0.362-0.075-0.695-0.282-0.89-0.604c-0.096-0.159-0.151-0.334-0.176-0.512C31.195,10.648,31.201,10.476,31.244,10.307z
		 M5.544,12.029c-0.389,0.176-0.849,0.199-1.23-0.021c-0.312-0.181-0.535-0.472-0.628-0.819c-0.021-0.08-0.01-0.162-0.017-0.242
		c-0.021-0.271,0.013-0.541,0.15-0.78c0.136-0.236,0.343-0.413,0.582-0.529c0.182-0.089,0.381-0.146,0.589-0.146
		c0.235,0,0.467,0.062,0.671,0.181c0.399,0.229,0.611,0.638,0.646,1.065c0.021,0.264-0.01,0.531-0.15,0.776
		C6.018,11.754,5.792,11.915,5.544,12.029z M5.802,28.188c-0.475,0.285-1.08,0.222-1.508-0.096C4.16,27.99,4.04,27.869,3.952,27.723
		c-0.207-0.348-0.227-0.744-0.112-1.102c0.098-0.303,0.286-0.574,0.577-0.75c0.209-0.125,0.448-0.189,0.69-0.189
		c0.102,0,0.199,0.017,0.295,0.037c0.359,0.078,0.672,0.295,0.866,0.619c0.096,0.16,0.153,0.334,0.177,0.512
		C6.515,27.368,6.276,27.903,5.802,28.188z M19.088,1.501L19.088,1.501c0.175,0.003,0.34,0.041,0.491,0.104
		c0.497,0.205,0.847,0.696,0.838,1.266c-0.009,0.553-0.354,1.025-0.838,1.226c-0.158,0.065-0.33,0.104-0.511,0.104v0.746
		l-0.022-0.746c-0.358-0.006-0.694-0.149-0.945-0.408c-0.009-0.01-0.013-0.023-0.021-0.033c-0.233-0.255-0.366-0.581-0.359-0.927
		c0.005-0.337,0.146-0.638,0.359-0.872C18.33,1.683,18.684,1.501,19.088,1.501z M18.593,36.163v0.746l-0.021-0.746
		c-0.172-0.004-0.336-0.041-0.491-0.104c-0.169-0.069-0.326-0.17-0.457-0.305c-0.251-0.26-0.386-0.6-0.38-0.961
		c0.008-0.549,0.35-1.021,0.837-1.225c0.163-0.066,0.342-0.104,0.531-0.104l0,0c0.36,0.007,0.696,0.15,0.947,0.41
		c0.009,0.01,0.012,0.021,0.021,0.031c0.233,0.256,0.365,0.579,0.359,0.928c-0.005,0.338-0.147,0.642-0.359,0.875
		C19.333,35.982,18.985,36.163,18.593,36.163z M31.997,27.993c-0.312-0.183-0.535-0.474-0.628-0.818
		c-0.021-0.081-0.011-0.163-0.017-0.245c-0.021-0.271,0.015-0.539,0.151-0.777c0.137-0.236,0.345-0.414,0.583-0.531
		c0.182-0.088,0.379-0.145,0.589-0.145c0.233,0,0.467,0.062,0.672,0.182c0.312,0.18,0.533,0.471,0.627,0.818
		c0.021,0.082,0.01,0.162,0.017,0.244c0.021,0.27-0.014,0.541-0.151,0.778c-0.138,0.24-0.362,0.399-0.609,0.515
		C32.84,28.189,32.379,28.214,31.997,27.993z"/>
</g>
<g>
</g>
<g>
</g>
<g>
</g>
<g>
</g>
<g>
</g>
<g>
</g>
<g>
</g>
<g>
</g>
<g>
</g>
<g>
</g>
<g>
</g>
<g>
</g>
<g>
</g>
<g>
</g>
<g>
</g>
</svg>
