<svg xmlns="http://www.w3.org/2000/svg" viewBox="-4715 2826 64 64"><defs><style>.a,.b,.d{fill:none;}.b,.c,.d{stroke:#000;stroke-linejoin:round;stroke-miterlimit:10;}.b,.c{stroke-linecap:round;stroke-width:2px;}.d{stroke-width:1.5px;}</style></defs><g transform="translate(-10141 11571)"><rect class="a" width="64" height="64" transform="translate(5426 -8745)"/><g transform="translate(5440 -8743)"><path class="b" d="M43.907,66h8.435a1.775,1.775,0,0,1,1.807,1.807h0a1.775,1.775,0,0,1-1.807,1.807H19.807A1.813,1.813,0,0,1,18,67.807h0A1.775,1.775,0,0,1,19.807,66H37.279" transform="translate(-18 -27.441)"/><path class="b" d="M52.562,86.435h-19.9L28.26,78h28.7Z" transform="translate(-24.36 -32.212)"/><path class="b" d="M32.217,83H30.867L28.26,78h6.563l-1.5,2.873Z" transform="translate(-18.36 -23.667)"/><path class="c" d="M32.217,83H30.867L28.26,78h6.563l-1.5,2.873Z" transform="translate(-8.36 -23.667)"/><path class="b" d="M49.689,50.1h.3A2.135,2.135,0,0,0,52.1,47.99V44.074h-9.64s-1.807.482-1.807-1.807a1.823,1.823,0,0,1,1.807-1.807H52.1V37.447H46.677a1.77,1.77,0,0,1-1.807-1.807,1.823,1.823,0,0,1,1.807-1.807H52.1V28.109A2.135,2.135,0,0,0,49.99,26H30.109A2.135,2.135,0,0,0,28,28.109V47.99A2.135,2.135,0,0,0,30.109,50.1h.3" transform="translate(-21.975 -11.541)"/><path class="b" d="M35.832,17h5.181l2.832,5.422H33Z" transform="translate(-23.963 -7.963)"/><g transform="translate(14.459 0)"><path class="d" d="M42,9.23V7.422c0-.964,1.084-1.807,2.41-1.807h2.41c1.325,0,2.41-.783,2.41-1.807V2" transform="translate(-42 -2)"/></g></g></g></svg>