<svg xmlns="http://www.w3.org/2000/svg" viewBox="0 0 72 72"><defs><style>.a,.f{fill:#444;}.b,.c,.d{fill:none;}.c{stroke:#444;stroke-width:0.5px;}.e,.f{stroke:none;}</style></defs><g transform="translate(-176 -120)"><g transform="translate(-4.193 7.749)"><path class="a" d="M41.68,38.539H0V35.884H41.68v2.655h0Zm0-4.782H0V32.428H41.68v1.329Zm0-3.456H0V28.972H41.68V30.3Zm0-3.456H0V25.516H41.68v1.329Zm0-3.456H0V22.061H41.68V23.39Zm0-3.456H0V18.6H41.68v1.329Zm0-3.456H0V15.149H41.68v1.329Zm0-3.456H0V11.694H41.68v1.329Zm0-3.456H0V8.238H41.68V9.567Zm0-3.456H0V4.782H41.68V6.111Zm0-3.456H0V0H41.68V2.655Z" transform="translate(195.193 125.728)"/><path d="M5.282,6.393H2.836l-.01-.008L0,4H8.231L5.283,6.393ZM6.646,3.707h-5.3V0H1.13v3.7H0V0H8.235V3.706H6.85V0h-.2v3.7Z" transform="translate(202.342 173.822)"/><g class="b" transform="translate(221.469 173.822)"><path class="e" d="M5.326,6.393H2.86L0,4H8.231L5.326,6.393Zm1.32-2.686h-5.3V0H1.13v3.7H0V0H8.235V3.706H6.85V0h-.2v3.7Z"/><path class="f" d="M 5.182521343231201 5.993244171142578 L 7.116590976715088 4.400204181671143 L 1.103713631629944 4.400204181671143 L 3.005444049835205 5.993244171142578 L 4.125106811523438 5.993244171142578 L 5.182521343231201 5.993244171142578 M 6.24636697769165 3.306748151779175 L 6.24636697769165 0.4000040292739868 L 1.746296763420105 0.4000040292739868 L 1.746296763420105 3.306230068206787 L 6.24636697769165 3.306748151779175 M 0.7302067875862122 3.306184053421021 L 0.7302067875862122 0.4000040292739868 L 0.3999967873096466 0.4000040292739868 L 0.3999967873096466 3.306184053421021 L 0.7302067875862122 3.306184053421021 M 7.250306606292725 3.306004762649536 L 7.834736824035645 3.305742979049683 L 7.834736824035645 0.4000040292739868 L 7.250306606292725 0.4000040292739868 L 7.250306606292725 3.306004762649536 M 5.326046943664551 6.39324426651001 L 5.325826644897461 6.39324426651001 L 4.125106811523438 6.39324426651001 L 2.860046863555908 6.39324426651001 L 0.003296790877357125 4.000204086303711 L 8.231376647949219 4.000204086303711 L 5.326216697692871 6.393104076385498 L 5.326046943664551 6.39324426651001 Z M 6.646366596221924 3.706794023513794 L 6.645756721496582 3.706794023513794 L 1.346296787261963 3.706184148788452 L 1.346296787261963 0.001654040650464594 L 1.130206823348999 0.001654040650464594 L 1.130206823348999 3.706184148788452 L -3.209228452760726e-06 3.706184148788452 L -3.209228452760726e-06 4.040603471366921e-06 L 8.234736442565918 4.040603471366921e-06 L 8.234736442565918 3.705564022064209 L 6.850306987762451 3.706184148788452 L 6.850306987762451 0.001654040650464594 L 6.646366596221924 0.001654040650464594 L 6.646366596221924 3.706184148788452 L 6.646366596221924 3.706794023513794 Z"/></g><g class="c" transform="translate(217.891 165.737)"><rect class="e" width="15.655" height="7.243"/><rect class="d" x="0.25" y="0.25" width="15.155" height="6.743"/></g><rect width="15.655" height="7.243" transform="translate(198.52 165.764)"/><rect class="a" width="7.374" height="1.243" transform="translate(202.599 124.484)"/><rect class="a" width="7.374" height="1.243" transform="translate(221.856 124.484)"/><path class="a" d="M0,0A1.277,1.277,0,0,1,1.065.594c.509,1.017.777,1.007.777,1.007V7.368H0Z" transform="translate(205.475 117.253)"/><path class="a" d="M0,0A1.277,1.277,0,0,1,1.065.594c.509,1.017.777,1.007.777,1.007V7.368H0Z" transform="translate(224.511 117.253)"/></g><rect class="d" width="72" height="72" transform="translate(176 120)"/></g></svg>