<svg xmlns="http://www.w3.org/2000/svg" viewBox="1723 1879 160 160"><defs><style>.a,.b,.c{fill:none;}.a,.b{stroke:#222;}.a{stroke-width:3px;}.b{stroke-width:1.25px;}.d{stroke:none;}</style></defs><g transform="translate(1379 1727)"><g transform="translate(40 64)"><g transform="translate(337.75 123)"><g transform="translate(0 0)"><path class="a" d="M90.759,72.72a10.762,10.762,0,0,1,5.94,1.774L84.993,20.07a7.714,7.714,0,0,0-7.279-5.765H24.376A7.717,7.717,0,0,0,17.1,20.07L5.392,74.495a10.75,10.75,0,0,1,5.94-1.774Z" transform="translate(-4.328 -14.305)"/><path class="a" d="M7.005,359.8H86.432a6.921,6.921,0,0,0,7.005-6.833V342.945A6.666,6.666,0,0,0,92.35,339.3a7.034,7.034,0,0,0-5.918-3.188H7.005A7.037,7.037,0,0,0,1.087,339.3,6.671,6.671,0,0,0,0,342.945v10.021A6.921,6.921,0,0,0,7.005,359.8Z" transform="translate(0 -272.008)"/><g class="b" transform="translate(63.75 70.721)"><rect class="d" width="16.25" height="4.877" rx="2.439"/><rect class="c" x="0.625" y="0.625" width="15" height="3.627" rx="1.814"/></g></g></g><rect class="c" width="160" height="160" transform="translate(304 88)"/></g></g></svg>