<?xml version="1.0" encoding="iso-8859-1"?>
<!-- Generator: Adobe Illustrator 19.0.0, SVG Export Plug-In . SVG Version: 6.00 Build 0)  -->
<svg version="1.1" id="Capa_1" xmlns="http://www.w3.org/2000/svg" xmlns:xlink="http://www.w3.org/1999/xlink" x="0px" y="0px"
	 viewBox="0 0 417.376 417.376" style="enable-background:new 0 0 417.376 417.376;" xml:space="preserve">
<g>
	<g>
		<path d="M277.917,279.882c-7.677-12.808-18.394-23.525-31.202-31.202v-202c0-25.781-20.899-46.68-46.68-46.68
			s-46.68,20.899-46.68,46.68v202c-43.013,25.781-56.983,81.549-31.202,124.562c25.781,43.013,81.549,56.983,124.562,31.202
			C289.728,378.663,303.698,322.895,277.917,279.882z M266.217,361.418c-12.949,24.548-38.423,39.906-66.174,39.901
			c-41.296,0.017-74.795-33.437-74.83-74.737c-0.023-27.769,15.34-53.266,39.902-66.222c2.603-1.386,4.232-4.091,4.24-7.04V46.68
			c0-16.944,13.736-30.68,30.68-30.68s30.68,13.736,30.68,30.68v206.64c0.008,2.949,1.637,5.654,4.24,7.04
			C271.494,279.634,285.49,324.879,266.217,361.418z"/>
	</g>
</g>
<g>
	<g>
		<path d="M230.257,309.502c-3.301-8.304-9.878-14.88-18.182-18.182v-168c0-6.627-5.373-12-12-12c-6.627,0-12,5.373-12,12v168
			c-16.669,6.627-24.809,25.513-18.182,42.182c6.627,16.669,25.513,24.809,42.182,18.182
			C228.744,345.056,236.884,326.171,230.257,309.502z"/>
	</g>
</g>
<g>
	<g>
		<path d="M300.155,43.64h-38.96c-4.418,0-8,3.582-8,8c0,4.418,3.582,8,8,8h38.96c4.418,0,8-3.582,8-8
			C308.155,47.222,304.573,43.64,300.155,43.64z"/>
	</g>
</g>
<g>
	<g>
		<path d="M300.155,79.32h-38.96c-4.418,0-8,3.582-8,8s3.582,8,8,8h38.96c4.418,0,8-3.582,8-8S304.573,79.32,300.155,79.32z"/>
	</g>
</g>
<g>
	<g>
		<path d="M300.155,115h-38.96c-4.418,0-8,3.582-8,8s3.582,8,8,8h38.96c4.418,0,8-3.582,8-8S304.573,115,300.155,115z"/>
	</g>
</g>
<g>
</g>
<g>
</g>
<g>
</g>
<g>
</g>
<g>
</g>
<g>
</g>
<g>
</g>
<g>
</g>
<g>
</g>
<g>
</g>
<g>
</g>
<g>
</g>
<g>
</g>
<g>
</g>
<g>
</g>
</svg>
