<svg xmlns="http://www.w3.org/2000/svg" viewBox="4928 1082 56 56"><defs><style>.a{fill:#fff;}.b{fill:none;}</style></defs><g transform="translate(4200 1082)"><g transform="translate(723.725 13)"><path class="a" d="M203.266,15.877a2.3,2.3,0,0,0,2.268-2.268V2.268a2.179,2.179,0,0,0-.674-1.595,2.225,2.225,0,0,0-3.19,0A2.179,2.179,0,0,0,201,2.268V13.609a2.3,2.3,0,0,0,2.268,2.268Z" transform="translate(-171.383 0)"/><path class="a" d="M44.066,78.555a13.35,13.35,0,0,0-4.013-4.784,2.2,2.2,0,0,0-1.683-.443,2.1,2.1,0,0,0-1.488.886,2.157,2.157,0,0,0-.434,1.674,2.2,2.2,0,0,0,.877,1.5,9.048,9.048,0,0,1,2.684,3.207,9.036,9.036,0,0,1,.23,7.557A8.985,8.985,0,0,1,35.4,92.987a8.973,8.973,0,0,1-7.035,0,8.983,8.983,0,0,1-4.837-4.837,9.034,9.034,0,0,1,.23-7.557,9.05,9.05,0,0,1,2.684-3.207,2.207,2.207,0,0,0,.877-1.5,2.156,2.156,0,0,0-.434-1.674,2.094,2.094,0,0,0-1.48-.886,2.241,2.241,0,0,0-1.692.443,13.528,13.528,0,0,0-4.359,16.142A13.444,13.444,0,0,0,26.6,97.16a13.431,13.431,0,0,0,10.561,0,13.44,13.44,0,0,0,7.247-7.247,13.24,13.24,0,0,0,1.081-5.28A13.4,13.4,0,0,0,44.066,78.555Z" transform="translate(0 -68.756)"/></g><rect class="b" width="56" height="56" transform="translate(728)"/></g></svg>