<svg xmlns="http://www.w3.org/2000/svg" viewBox="1339 1879 160 160"><defs><style>.a{fill:none;}</style></defs><g transform="translate(1203 1727)"><g transform="translate(80 64)"><g transform="translate(86 118)"><path d="M100,20.712,79.285,0,62.06,17.225l-6.578-6.58L3.7,62.426A12.639,12.639,0,0,0,3.7,80.3L19.707,96.3a12.633,12.633,0,0,0,17.864,0L89.352,44.522l-6.58-6.58Zm-7.885.647-6.65,6.649L81.79,24.336l6.65-6.651ZM78.639,7.885l3.673,3.673-6.65,6.651-3.675-3.675ZM83.752,44.52,34.769,93.5a8.674,8.674,0,0,1-12.263,0L6.5,77.493a8.681,8.681,0,0,1,0-12.269L55.48,16.243Z" transform="translate(0 0)"/><path d="M35.411,13.889a1.476,1.476,0,0,0-2.137,0L29,18.163A1.476,1.476,0,0,0,29,20.3l1.05,1.087L27.627,23.81,18.75,19.865l13.3-13.3V9.158a1.526,1.526,0,0,0,3.053,0V3.053a1.442,1.442,0,0,0-1.526-1.526H25.948a1.442,1.442,0,0,0-1.526,1.526,1.442,1.442,0,0,0,1.526,1.526h3.816L15.407,18.935a1.372,1.372,0,0,0-.754.754L13.341,21,9.311,12.058,12.4,8.97a4.816,4.816,0,0,0,1.339.187,4.5,4.5,0,0,0,4.579-4.579A4.5,4.5,0,0,0,13.737,0,4.5,4.5,0,0,0,9.158,4.579,4.638,4.638,0,0,0,9.924,7.17L6.411,10.684a1.393,1.393,0,0,0-.305,1.679L11.022,23.32l-1.9,1.9a6.052,6.052,0,0,0-3.013-.8,6.1,6.1,0,1,0,6.105,6.1,6.056,6.056,0,0,0-.916-3.2l5.175-5.175,10.852,4.869a.918.918,0,0,0,.61.153A2.2,2.2,0,0,0,29,26.862l3.168-3.282,1.105,1.145a1.385,1.385,0,0,0,1.068.458,1.022,1.022,0,0,0,1.068-.61L39.684,20.3a1.476,1.476,0,0,0,0-2.137ZM13.737,3.053a1.442,1.442,0,0,1,1.526,1.526,1.442,1.442,0,0,1-1.526,1.526,1.442,1.442,0,0,1-1.526-1.526A1.442,1.442,0,0,1,13.737,3.053ZM6.105,33.578a3.053,3.053,0,1,1,3.053-3.053A3.062,3.062,0,0,1,6.105,33.578Zm28.237-12.21-2.137-2.137,2.137-2.137,2.137,2.137Z" transform="translate(25.281 37.475)"/></g><rect class="a" width="160" height="160" transform="translate(56 88)"/></g></g></svg>