<svg xmlns="http://www.w3.org/2000/svg" xmlns:xlink="http://www.w3.org/1999/xlink" viewBox="-4134.369 2942.359 90.143 98.489"><defs><style>.a{font-size:17px;font-family:Helvetica;}.b,.c,.d{fill:none;}.b,.d{stroke:#000;}.b{stroke-width:2px;}.d{stroke-width:1.5px;}.e{filter:url(#c);}.f{filter:url(#a);}</style><filter id="a" x="-4134.369" y="2943.242" width="64.115" height="97.32" filterUnits="userSpaceOnUse"><feOffset dy="3" input="SourceAlpha"/><feGaussianBlur stdDeviation="3" result="b"/><feFlood flood-opacity="0.161"/><feComposite operator="in" in2="b"/><feComposite in="SourceGraphic"/></filter><filter id="c" x="-4082.447" y="2942.359" width="24.239" height="98.489" filterUnits="userSpaceOnUse"><feOffset dy="3" input="SourceAlpha"/><feGaussianBlur stdDeviation="3" result="d"/><feFlood flood-opacity="0.161"/><feComposite operator="in" in2="d"/><feComposite in="SourceGraphic"/></filter></defs><g transform="translate(-4235 2754)"><text class="a" transform="translate(137.797 240.493)"><tspan x="-12.995" y="0">X +</tspan></text><g transform="translate(110.631 194.903)"><g transform="translate(44.115 78.659) rotate(180)"><g transform="translate(0 0)"><g class="f" transform="matrix(-1, 0, 0, -1, -4080.25, 3027.56)"><path class="b" d="M42.865,36.04,7.218,1.208A4.118,4.118,0,0,0,4.258,0,4.121,4.121,0,0,0,1.3,1.208,3.849,3.849,0,0,0,.048,4.07V22.382c-.064-.027-.064,32.489,0,32.556V73.25A3.847,3.847,0,0,0,1.3,76.111,4.117,4.117,0,0,0,4.258,77.32a4.115,4.115,0,0,0,2.96-1.209L42.865,41.764a3.9,3.9,0,0,0,0-5.724Z" transform="translate(-4080.25 3027.56) rotate(180)"/></g></g></g><rect class="c" width="79.407" height="79.407" transform="translate(0.735 0)"/><g class="e" transform="matrix(1, 0, 0, 1, 4124.37, -2948.9)"><path class="d" d="M.316,0H78.673a.315.315,0,0,1,.316.313V4.426a.315.315,0,0,1-.316.313H.316A.315.315,0,0,1,0,4.426V.313A.315.315,0,0,1,.316,0Z" transform="translate(-4072.7 3028.1) rotate(-90)"/></g></g></g></svg>