<svg xmlns="http://www.w3.org/2000/svg" xmlns:xlink="http://www.w3.org/1999/xlink" viewBox="-3612.476 3034.101 98.489 93.885"><defs><style>.a{font-size:17px;font-family:Helvetica;}.b,.c,.d{fill:none;}.b,.d{stroke:#000;}.b{stroke-width:2px;}.d{stroke-width:1.5px;}.e{filter:url(#c);}.f{filter:url(#a);}</style><filter id="a" x="-3611.593" y="3063.462" width="97.32" height="64.524" filterUnits="userSpaceOnUse"><feOffset dy="3" input="SourceAlpha"/><feGaussianBlur stdDeviation="3" result="b"/><feFlood flood-opacity="0.161"/><feComposite operator="in" in2="b"/><feComposite in="SourceGraphic"/></filter><filter id="c" x="-3612.476" y="3051.303" width="98.489" height="24.283" filterUnits="userSpaceOnUse"><feOffset dy="3" input="SourceAlpha"/><feGaussianBlur stdDeviation="3" result="d"/><feFlood flood-opacity="0.161"/><feComposite operator="in" in2="d"/><feComposite in="SourceGraphic"/></filter></defs><g transform="translate(-4235 2754)"><text class="a" transform="translate(671.658 340.335)"><tspan x="-10.384" y="0">Z -</tspan></text><g transform="translate(632.068 360.986) rotate(-90)"><g transform="translate(44.524 78.659) rotate(180)"><g transform="translate(0 0)"><g class="f" transform="matrix(0, -1, 1, 0, -3070.46, -3524.27)"><path class="b" d="M43.262,36.04,7.284,1.208A4.176,4.176,0,0,0,4.3,0,4.179,4.179,0,0,0,1.309,1.208,3.833,3.833,0,0,0,.048,4.07V22.382c-.064-.027-.064,32.489,0,32.556V73.25a3.831,3.831,0,0,0,1.261,2.861A4.175,4.175,0,0,0,4.3,77.319a4.173,4.173,0,0,0,2.987-1.209L43.262,41.764a3.877,3.877,0,0,0,0-5.724Z" transform="translate(-3524.27 3070.46) rotate(90)"/></g></g></g><rect class="c" width="80.143" height="80.143" transform="translate(0.742 0)"/><g class="e" transform="matrix(0, 1, -1, 0, 3114.99, 3602.93)"><path class="d" d="M.316,0H78.673a.316.316,0,0,1,.316.316V4.467a.316.316,0,0,1-.316.316H.316A.316.316,0,0,1,0,4.467V.316A.316.316,0,0,1,.316,0Z" transform="translate(-3523.74 3062.84) rotate(180)"/></g></g></g></svg>